<svg xmlns="http://www.w3.org/2000/svg" width="170.517" height="187.405" viewBox="0 0 170.517 187.405">
  <g id="Group_6" data-name="Group 6" transform="translate(-1228.5 -742)">
    <g id="Layer_2" data-name="Layer 2">
      <g id="Group_1" data-name="Group 1">
        <path id="Path_647" data-name="Path 647" d="M1393.5,869.436a36.08,36.08,0,0,0-7.173-16.743,35.664,35.664,0,0,0-5.078-5.278l.067-.055-16.83-13.348a24.84,24.84,0,0,0-15.975-5.854c-12.407,0-22.636,9.246-25.033,21.483a13.76,13.76,0,0,0-24.013,0c-2.427-12.237-12.626-21.483-25.033-21.483a24.84,24.84,0,0,0-15.975,5.854l-16.83,13.348.067.055a36.061,36.061,0,1,0,59.069,32.774l.036-.94.383.419a14.833,14.833,0,0,0,20.585-.947l.255-.406.121,1.874a36.081,36.081,0,1,0,71.357-10.753Zm-154.992.1a21.962,21.962,0,0,1,29.432-18.5,27.741,27.741,0,0,0-3.574-.261A27.212,27.212,0,0,0,1238.507,869.535Zm3.246,6.589a22.005,22.005,0,1,1,22.006,22.006A22.005,22.005,0,0,1,1241.753,876.124Zm69.444-2.433a5.854,5.854,0,1,1,5.855-5.854A5.854,5.854,0,0,1,1311.2,873.691Zm22.595-9.614a21.963,21.963,0,0,1,28.187-13.046,27.74,27.74,0,0,0-3.573-.261,27.211,27.211,0,0,0-25.858,18.765A21.949,21.949,0,0,1,1333.792,864.077Zm2.657,12.047a22.005,22.005,0,1,1,22.005,22.006A22.005,22.005,0,0,1,1336.449,876.124Z" stroke="#fff" stroke-miterlimit="10" stroke-width="1"/>
        <path id="Path_648" data-name="Path 648" d="M1264.565,886.7h0a8.339,8.339,0,0,1-8.056-8.595v-3.438a8.363,8.363,0,0,1,8.056-8.6h0a8.363,8.363,0,0,1,8.056,8.6V878.1A8.363,8.363,0,0,1,1264.565,886.7Z"/>
        <path id="Path_649" data-name="Path 649" d="M1266.857,883.056h0a2.075,2.075,0,0,1-2.123-2.023v-.809a2.08,2.08,0,0,1,2.123-2.022h0a2.081,2.081,0,0,1,2.124,2.022v.809A2.081,2.081,0,0,1,1266.857,883.056Z" fill="#fff"/>
      </g>
      <g id="Group_2" data-name="Group 2">
        <path id="Path_650" data-name="Path 650" d="M1372.05,872.263q0-.624-.923-.76l-8.39-1.222-3.774-7.6q-.326-.68-.814-.679t-.815.679l-3.774,7.6-8.39,1.222q-.922.137-.923.76a1.329,1.329,0,0,0,.407.815l6.082,5.919-1.439,8.335c-.018.163-.027.281-.027.353a.953.953,0,0,0,.176.571.611.611,0,0,0,.53.244,1.563,1.563,0,0,0,.679-.19l7.494-3.937,7.493,3.937a1.444,1.444,0,0,0,.679.19.584.584,0,0,0,.5-.244.953.953,0,0,0,.176-.571v-.353L1365.561,879l6.055-5.919a1.217,1.217,0,0,0,.434-.815Z" fill="#ffc71f"/>
      </g>
      <g id="Group_3" data-name="Group 3">
        <path id="Path_651" data-name="Path 651" d="M1366.746,863.869l-2.778-2.955,2.955,2.778a1.532,1.532,0,0,0,2.163,0l2.955-2.778-2.778,2.955a1.532,1.532,0,0,0,0,2.163l2.778,2.954-2.955-2.777a1.53,1.53,0,0,0-2.163,0l-2.955,2.777,2.778-2.954A1.532,1.532,0,0,0,1366.746,863.869Z" fill="#f8ca42"/>
        <path id="Path_652" data-name="Path 652" d="M1342.74,881.281l-2.234-2.377,2.377,2.235a1.231,1.231,0,0,0,1.74,0L1347,878.9l-2.235,2.377a1.231,1.231,0,0,0,0,1.74L1347,885.4l-2.377-2.234a1.231,1.231,0,0,0-1.74,0l-2.377,2.234,2.234-2.377A1.23,1.23,0,0,0,1342.74,881.281Z" fill="#f8ca42"/>
        <path id="Path_653" data-name="Path 653" d="M1371.712,881.59l-1.8-1.919,1.919,1.8a.993.993,0,0,0,1.405,0l1.92-1.8-1.8,1.919a.994.994,0,0,0,0,1.406l1.8,1.919-1.92-1.8a.993.993,0,0,0-1.405,0l-1.919,1.8,1.8-1.919A1,1,0,0,0,1371.712,881.59Z" fill="#f8ca42"/>
        <path id="Path_654" data-name="Path 654" d="M1357.759,892.6l-1.7-1.808,1.808,1.7a.937.937,0,0,0,1.324,0l1.808-1.7-1.7,1.808a.937.937,0,0,0,0,1.324l1.7,1.808-1.808-1.7a.937.937,0,0,0-1.324,0l-1.808,1.7,1.7-1.808A.936.936,0,0,0,1357.759,892.6Z" fill="#f8ca42"/>
        <path id="Path_655" data-name="Path 655" d="M1349.1,859.858l-1.522-1.619,1.619,1.522a.84.84,0,0,0,1.186,0l1.619-1.522-1.522,1.619a.838.838,0,0,0,0,1.185l1.522,1.62-1.619-1.523a.84.84,0,0,0-1.186,0l-1.619,1.523,1.522-1.62A.838.838,0,0,0,1349.1,859.858Z" fill="#f8ca42"/>
      </g>
      <path id="Path_656" data-name="Path 656" d="M1375.039,863.773c6.286-7.441,7.394-8.766,8.237-9.924a2.372,2.372,0,0,0,.036-3.748c-.821-1.173-1.9-2.519-8.046-10.079,7.441,6.286,8.766,7.4,9.924,8.237a2.372,2.372,0,0,0,3.748.036c1.173-.821,2.519-1.9,10.079-8.046-6.286,7.441-7.4,8.766-8.237,9.924a2.372,2.372,0,0,0-.036,3.748c.82,1.173,1.9,2.519,8.046,10.079-7.441-6.285-8.767-7.394-9.924-8.237a2.372,2.372,0,0,0-3.748-.036C1383.945,856.547,1382.6,857.631,1375.039,863.773Z" fill="#f8ca42"/>
      <path id="Path_657" data-name="Path 657" d="M1297.377,883.824a35.755,35.755,0,0,1-44.57,23.88c1.293.115,2.6.2,3.914.2a45.116,45.116,0,0,0,41.487-27.393Q1297.872,882.186,1297.377,883.824Z" fill="#fff"/>
      <path id="Path_658" data-name="Path 658" d="M1391.417,883.824a35.754,35.754,0,0,1-44.569,23.88c1.292.115,2.6.2,3.913.2a45.116,45.116,0,0,0,41.487-27.393Q1391.912,882.186,1391.417,883.824Z" fill="#fff"/>
    </g>
    <g id="Layer_1" data-name="Layer 1">
      <g id="Group_4" data-name="Group 4">
        <path id="Path_659" data-name="Path 659" d="M1334.8,918.231c-5.921,0-9.841-10.925-23.268-4.587-13.426-6.338-17.346,4.587-23.267,4.587s-5.588-6.255-5.588-6.255c-5.849,5.849-2.251,16.929,12.009,16.929s16.846-5.253,16.846-5.253,2.586,5.253,16.846,5.253,17.858-11.08,12.009-16.929C1340.382,911.976,1340.716,918.231,1334.8,918.231Z" stroke="#fff" stroke-miterlimit="10" stroke-width="1"/>
      </g>
      <path id="Path_660" data-name="Path 660" d="M1360.6,816.808l11.908,6.97-4.058,14.336-20.185,12.335-30.219,5.083L1275,850l-20.934-11.885-1.121-11.214,22.428-11.214-3.364-62.8,5.607-4.486,29.156-5.607,24.67,2.243,15.7,3.364,5.607,4.486-3.364,63.919Z" fill="#ffc71f"/>
      <g id="Group_5" data-name="Group 5">
        <path id="Path_661" data-name="Path 661" d="M1350.8,813.878c-.178-11.436-.321-45.106,3.771-59.375a3.976,3.976,0,0,0-.057-2.375c-.465-1.372-2.153-4-8.226-6.18-7.3-2.62-18.872-3.948-34.4-3.948s-27.106,1.328-34.4,3.948c-6.073,2.18-7.761,4.808-8.226,6.18a3.976,3.976,0,0,0-.057,2.375c4.169,14.538,3.943,49.188,3.762,59.983a54.536,54.536,0,0,0-8.873,2.539c-11.469,4.461-13.877,11.069-13.877,15.828a10.762,10.762,0,0,0,2,6.114c6.72,9.884,29.766,16.566,59.676,16.566,18.1,0,33.427-2.43,44.321-7.028,11.19-4.722,17.353-11.694,17.353-19.631C1373.558,819.879,1365.095,814.349,1350.8,813.878Zm-73.929,3.97c.02-.705,1.129-40.967-2.953-60.752,5.262,2.059,16.146,4.78,36.951,4.78A147.509,147.509,0,0,0,1336,759.995a299.776,299.776,0,0,0-3.061,41.246c0,6.726.06,12.566.145,17.475-.92.213-1.925.437-3.006.665-1.386.272-2.885.594-4.486.849l-2.462.414-2.582.361c-1.753.276-3.577.4-5.429.617-1.853.152-3.742.271-5.633.37l-2.834.058c-.944.021-1.886.051-2.815,0l-2.772-.084c-.457-.018-.914-.018-1.363-.05l-1.338-.119c-1.766-.179-3.5-.246-5.1-.551l-2.352-.368a19.507,19.507,0,0,1-2.187-.413l-3.8-.9c-1.125-.3-2.07-.666-2.87-.914l-2.5-.831,2.415,1.054c.776.321,1.7.78,2.8,1.18l3.741,1.252a19.913,19.913,0,0,0,2.17.618l2.346.589c1.6.458,3.341.686,5.126,1.032l1.353.244c.455.074.917.117,1.38.178l2.815.342c.948.135,1.907.193,2.87.259l2.9.2c1.937.076,3.88.13,5.793.147,1.909-.044,3.8-.007,5.616-.125l2.684-.129,2.565-.2c1.671-.113,3.242-.3,4.7-.454.83-.1,1.615-.2,2.36-.295.09,3.826.189,6.862.273,9.062-1.013.2-2.129.42-3.344.638-1.392.232-2.9.509-4.505.72l-2.47.347-2.589.292c-1.758.229-3.582.317-5.437.483-1.855.11-3.744.186-5.635.245l-2.832,0c-.943,0-1.884.014-2.812-.049l-2.766-.131c-.457-.024-.912-.036-1.362-.07l-1.334-.138c-1.761-.205-3.49-.295-5.087-.615l-2.345-.392a20.9,20.9,0,0,1-2.182-.429l-3.786-.924c-1.123-.3-2.066-.671-2.863-.921l-2.495-.837,2.408,1.06c.773.323,1.69.785,2.789,1.187,1.109.379,2.359.808,3.724,1.276a21.488,21.488,0,0,0,2.161.634l2.335.613c1.6.472,3.326.723,5.1,1.094l1.346.264c.453.076.913.131,1.374.2l2.8.39c.943.15,1.9.224,2.858.311l2.208.2c-20.212-.67-29.456-6.032-31.853-7.694Zm70.825-.778s-.1-.941-.211-2.589-.274-4.005-.384-6.835c-.058-1.415-.113-2.949-.148-4.571s-.081-3.333-.074-5.1-.026-3.6.018-5.458c.025-1.859.066-3.748.125-5.636s.161-3.775.253-5.633c.07-1.858.253-3.683.372-5.451s.329-3.471.487-5.088.4-3.138.581-4.544.443-2.685.637-3.82.4-2.12.586-2.927c.363-1.615.592-2.529.592-2.529s-.091.943-.287,2.58c-.11.817-.223,1.81-.3,2.957s-.229,2.429-.316,3.839-.2,2.933-.3,4.546c-.087,1.614-.178,3.316-.273,5.077-.155,3.524-.333,7.283-.433,11.046-.077,1.88-.137,3.762-.18,5.615s-.1,3.676-.155,5.441c-.1,3.531-.189,6.828-.266,9.653s-.165,5.185-.218,6.835S1347.695,817.07,1347.695,817.07Zm-35.811-71.091c25.98,0,34.673,3.795,37.52,5.96-2.207,1.111-6.924,3-15.393,4.351.757-.168,1.495-.343,2.2-.529a43.677,43.677,0,0,0,4.433-1.345,31.389,31.389,0,0,0,3.3-1.367,17.694,17.694,0,0,0,2-1.122,5.318,5.318,0,0,0,.655-.477,7.058,7.058,0,0,1-.739.314c-.483.2-1.217.422-2.145.694-.937.253-2.08.524-3.4.785-.661.128-1.361.267-2.112.37-.745.118-1.523.259-2.348.354-.82.11-1.672.229-2.564.3s-1.8.219-2.747.28c-1.888.179-3.889.27-5.952.419-2.07.094-4.212.165-6.376.222-2.152.089-4.4.069-6.626.086-2.184.013-4.423.02-6.594-.026-1.089-.035-2.169-.047-3.238-.053l-3.155-.1c-1.039-.019-2.051-.107-3.049-.141s-1.972-.087-2.917-.166c-1.894-.134-3.681-.287-5.328-.466-1.643-.195-3.151-.389-4.476-.619s-2.481-.46-3.415-.711a20.893,20.893,0,0,1-2.154-.658,7,7,0,0,1-.736-.318,5.43,5.43,0,0,0,.653.48,15.686,15.686,0,0,0,2.024,1.088,28.609,28.609,0,0,0,3.332,1.294c1.31.436,2.809.865,4.463,1.237.862.2,1.767.394,2.707.575-9.21-1.205-14-3.025-16.122-4.069C1275.411,750.715,1282.864,745.979,1311.884,745.979Zm6.733,106.252-3.33.075-3.3.015c-2.22-.015-4.409-.056-6.592-.134-4.361-.163-8.649-.472-12.781-.945a114.46,114.46,0,0,1-11.829-1.962,85.913,85.913,0,0,1-10.349-2.908,47.571,47.571,0,0,1-8.279-3.76,23.165,23.165,0,0,1-5.533-4.3,9.118,9.118,0,0,1-2.245-3.882,5.742,5.742,0,0,1-.166-1.173c-.012-.267-.019-.4-.019-.4,0-9.049,12.2-12.884,18.7-14.287v12.961a1.988,1.988,0,0,0,.653,1.473c.379.344,8.794,7.727,31.971,9.073a101.186,101.186,0,0,0,32.367,6.713c2.12-.364,4.2-.784,6.236-1.266a71.329,71.329,0,0,0,11.235-3.625,37.846,37.846,0,0,0,4.859-2.47,26.281,26.281,0,0,0,4.1-2.979,14.771,14.771,0,0,0,4.72-7.282,10.833,10.833,0,0,0,.225-3.65,7.883,7.883,0,0,0-1-2.938,10.005,10.005,0,0,0-3.066-3.155c-.428-.288-.769-.492-1-.619l-.354-.2.364.178c.242.115.594.3,1.04.566a9.8,9.8,0,0,1,3.283,3.067,8.245,8.245,0,0,1,1.171,3.034,11.351,11.351,0,0,1-.081,3.842,14.951,14.951,0,0,1-4.693,7.815,27.247,27.247,0,0,1-4.166,3.19,39.1,39.1,0,0,1-4.925,2.659,63.626,63.626,0,0,1-11.382,3.906A131.039,131.039,0,0,1,1318.617,852.231Z"/>
        <path id="Path_662" data-name="Path 662" d="M1257.772,836.684a19.919,19.919,0,0,0,5.446,4.263,46.568,46.568,0,0,0,6.613,3.069c2.316.877,4.708,1.646,7.125,2.309a111.851,111.851,0,0,0,14.41,2.851c4.644.626,9,.947,12.741,1.095s6.854.1,9.032.079c1.089-.017,1.944-.06,2.527-.084l.894-.038-3.416-.184c-2.172-.109-5.272-.334-8.977-.675-1.853-.171-3.856-.39-5.97-.64s-4.336-.574-6.628-.931-4.648-.8-7.031-1.288-4.787-1.059-7.163-1.717-4.735-1.376-7-2.219a51.485,51.485,0,0,1-6.465-2.865,20.029,20.029,0,0,1-5.212-3.82,5.973,5.973,0,0,1-1.418-2.425,6.113,6.113,0,0,1,.053-2.639,10.141,10.141,0,0,1,2.237-4.291,16.543,16.543,0,0,1,2.851-2.6c.877-.63,1.6-1.083,2.106-1.374l.781-.435-.823.353a19.227,19.227,0,0,0-2.245,1.186,17.016,17.016,0,0,0-3.131,2.449,10.244,10.244,0,0,0-2.7,4.485,8.453,8.453,0,0,0-.273,1.488,5.093,5.093,0,0,0,.071,1.633A7.109,7.109,0,0,0,1257.772,836.684Z"/>
        <path id="Path_663" data-name="Path 663" d="M1304.645,748.225l6.843.029,6.843-.043,5.973-.088c1.751-.034,3.211-.083,4.235-.116s1.61-.078,1.61-.078-.578-.1-1.594-.238-2.469-.328-4.218-.481c-.874-.087-1.822-.165-2.825-.224s-2.062-.143-3.158-.176-2.228-.1-3.379-.109l-3.489-.038-3.489.048c-1.151.01-2.283.081-3.378.116-2.19.1-4.233.237-5.981.4-3.5.3-5.814.7-5.814.7s2.344.134,5.845.208C1300.419,748.178,1302.46,748.212,1304.645,748.225Z"/>
        <path id="Path_664" data-name="Path 664" d="M1279.72,795.816c-.016-1.238-.034-2.5-.051-3.754-.082-2.515-.18-5.03-.372-7.383-.072-1.177-.183-2.313-.294-3.389s-.213-2.094-.342-3.03c-.229-1.875-.479-3.43-.678-4.515l-.317-1.7s0,.63,0,1.733c.02,1.1.048,2.669.082,4.553.09,3.757.21,8.767.329,13.776.073,2.5.146,5.009.214,7.356s.145,4.542.22,6.424c.146,3.762.313,6.279.313,6.279s.365-2.5.6-6.268c.13-1.884.218-4.084.268-6.442C1279.7,798.273,1279.739,797.054,1279.72,795.816Z"/>
        <path id="Path_665" data-name="Path 665" d="M1329.278,804.023c.028,1.309.1,2.547.165,3.688.251,4.568.706,7.6.706,7.6s.085-.761.213-2.09.29-3.227.446-5.5c.083-1.137.172-2.368.245-3.67s.179-2.675.24-4.095.182-2.885.229-4.375c.073-1.49.148-3,.222-4.516s.132-3.026.2-4.515c.1-1.487.1-2.957.186-4.374.058-1.419.113-2.791.166-4.092.073-1.3.092-2.534.141-3.67s.089-2.181.113-3.108.064-1.735.088-2.4c.039-1.334.04-2.1.04-2.1s-.2.738-.511,2.04c-.147.652-.353,1.441-.524,2.355s-.379,1.945-.569,3.075c-.382,2.258-.755,4.905-1.041,7.751-.148,1.423-.291,2.893-.39,4.391s-.185,3.02-.279,4.541c-.047,1.523-.094,3.046-.14,4.546s-.028,2.976-.024,4.4S1329.236,802.714,1329.278,804.023Z"/>
      </g>
      <path id="Path_666" data-name="Path 666" d="M1369,853c-.146.591-8.073-2.025-14-1a25.254,25.254,0,0,0-11,5c-8.888,6.746-10.879,18.419-13,18-1.65-.326-2.053-8.575,0-14,3.782-10,18.116-14.074,28-12C1362.722,849.781,1369.124,852.5,1369,853Z"/>
      <path id="Path_667" data-name="Path 667" d="M1274,852c-.146.591-8.073-1.025-14,0a25.254,25.254,0,0,0-11,5c-8.888,6.746-10.879,19.419-13,19-1.65-.326-2.053-9.575,0-15,3.782-10,18.116-14.074,28-12C1267.722,849.781,1274.124,851.5,1274,852Z"/>
      <path id="Path_668" data-name="Path 668" d="M1272,852" fill="#fff"/>
      <path id="Path_669" data-name="Path 669" d="M1297.948,918.862l-.378.424a9.646,9.646,0,0,1-1.1,1.021,12.143,12.143,0,0,1-1.771,1.192,15.024,15.024,0,0,1-2.27.951,12.671,12.671,0,0,1-2.435.4,8.82,8.82,0,0,1-2.141-.17,4.623,4.623,0,0,1-.826-.217,5.571,5.571,0,0,1-.614-.228L1285.9,922l.555.109a4.027,4.027,0,0,0,.633.1c.244.036.519.068.82.083a11.494,11.494,0,0,0,2.042-.045,12.107,12.107,0,0,0,2.284-.472,14.419,14.419,0,0,0,2.193-.822,19.787,19.787,0,0,0,1.818-.972c.516-.318.951-.588,1.238-.8Z" fill="#fff"/>
      <path id="Path_670" data-name="Path 670" d="M1307.039,925.22a15.462,15.462,0,0,1-2.871,1.267,30.141,30.141,0,0,1-4.336.953,35.746,35.746,0,0,1-5.084.278c-.863-.031-1.728-.052-2.589-.154a18.03,18.03,0,0,1-2.481-.468,16.786,16.786,0,0,1-4.118-1.708,10.68,10.68,0,0,1-2.4-2.031,7.808,7.808,0,0,1-.715-.947,7.63,7.63,0,0,0,.79.876,10.429,10.429,0,0,0,2.509,1.778,16.388,16.388,0,0,0,4.073,1.473,17.586,17.586,0,0,0,2.407.41c.822.084,1.68.09,2.535.106a35.19,35.19,0,0,0,5-.186,29.708,29.708,0,0,0,4.3-.741,15.184,15.184,0,0,0,2.926-1,10.865,10.865,0,0,0,1.045-.55A10.607,10.607,0,0,1,1307.039,925.22Z" fill="#fff"/>
      <path id="Path_671" data-name="Path 671" d="M1339.975,923.357a10.727,10.727,0,0,1-2.4,2.031,16.8,16.8,0,0,1-4.118,1.708,18.018,18.018,0,0,1-2.482.468c-.861.1-1.725.123-2.589.154a35.737,35.737,0,0,1-5.083-.278,30.125,30.125,0,0,1-4.337-.953,15.448,15.448,0,0,1-2.87-1.267,10.9,10.9,0,0,1-1-.64,11.047,11.047,0,0,0,1.045.549,15.211,15.211,0,0,0,2.926,1,29.755,29.755,0,0,0,4.3.741,35.2,35.2,0,0,0,5,.186c.854-.016,1.713-.022,2.535-.106a17.611,17.611,0,0,0,2.407-.41,16.4,16.4,0,0,0,4.073-1.473,10.45,10.45,0,0,0,2.509-1.778,7.656,7.656,0,0,0,.789-.876A7.715,7.715,0,0,1,1339.975,923.357Z" fill="#fff"/>
      <path id="Path_672" data-name="Path 672" d="M1325.189,918.862l.466.321c.287.213.723.483,1.239.8a19.629,19.629,0,0,0,1.818.972,14.41,14.41,0,0,0,2.193.822,12.106,12.106,0,0,0,2.284.472,11.485,11.485,0,0,0,2.041.045c.3-.015.577-.047.821-.083a4.066,4.066,0,0,0,.633-.1l.555-.109s-.188.086-.515.239a5.511,5.511,0,0,1-.615.228,4.623,4.623,0,0,1-.826.217,8.816,8.816,0,0,1-2.141.17,12.684,12.684,0,0,1-2.435-.4,14.97,14.97,0,0,1-2.269-.951,12.09,12.09,0,0,1-1.771-1.192,9.755,9.755,0,0,1-1.1-1.021Z" fill="#fff"/>
      <path id="Path_673" data-name="Path 673" d="M1282.24,916.606l.157.267a8.379,8.379,0,0,0,.47.727,5.934,5.934,0,0,0,2.175,1.965,4.6,4.6,0,0,0,1.822.488,8.869,8.869,0,0,0,2.144-.164c.374-.058.75-.166,1.131-.261a7.909,7.909,0,0,0,1.083-.406,15.082,15.082,0,0,0,2.111-1.229,36.808,36.808,0,0,1,4.388-2.595,15.081,15.081,0,0,1,4.339-1.21,13.253,13.253,0,0,1,3.157-.016c.376.051.669.1.868.138l.3.057-.309.013c-.2,0-.5.025-.867.058a18.722,18.722,0,0,0-3.013.507,18.218,18.218,0,0,0-3.964,1.522,36.126,36.126,0,0,0-4.161,2.674,16.337,16.337,0,0,1-2.345,1.25,9.178,9.178,0,0,1-1.276.425c-.422.091-.835.192-1.257.243a7.63,7.63,0,0,1-2.461-.015,5.8,5.8,0,0,1-2.08-.816,5.688,5.688,0,0,1-2.02-2.5,8.591,8.591,0,0,1-.3-.829Z" fill="#fff"/>
      <path id="Path_674" data-name="Path 674" d="M1340.9,916.606l-.093.295a8.652,8.652,0,0,1-.3.829,5.676,5.676,0,0,1-2.019,2.5,5.793,5.793,0,0,1-2.08.816,7.63,7.63,0,0,1-2.461.015c-.422-.051-.835-.152-1.258-.243a9.222,9.222,0,0,1-1.276-.425,16.4,16.4,0,0,1-2.345-1.25,36.034,36.034,0,0,0-4.16-2.674,18.222,18.222,0,0,0-3.965-1.522,18.713,18.713,0,0,0-3.012-.507c-.372-.033-.666-.054-.867-.058l-.309-.013.3-.057c.2-.041.491-.087.868-.138a13.253,13.253,0,0,1,3.157.016,15.08,15.08,0,0,1,4.339,1.21,36.874,36.874,0,0,1,4.387,2.595,15.148,15.148,0,0,0,2.112,1.229,7.848,7.848,0,0,0,1.082.406c.382.1.758.2,1.131.261a8.88,8.88,0,0,0,2.145.164,4.594,4.594,0,0,0,1.821-.488,5.938,5.938,0,0,0,2.176-1.965,8.294,8.294,0,0,0,.469-.727Z" fill="#fff"/>
      <path id="Path_675" data-name="Path 675" d="M1255.312,836.6" fill="none" stroke="#fff" stroke-miterlimit="10" stroke-width="1"/>
    </g>
  </g>
</svg>
